#!OML:ASF I:\Actors\actors\Patient Classification 2\Patient 1\Session 1\actor1.ASF
:FULLY-SPECIFIED
:DEGREES
356
root -1.31718 17.7163 7.21616 -4.6069 0.375465 -2.23732
lowerback 11.6594 0.797626 -0.786675
upperback -6.80386 0.841467 -0.77689
thorax -14.1195 0.418076 -0.618707
lowerneck -45.6198 -2.73897 -1.04944
upperneck 12.4428 -3.13075 0.980161
head 10.7992 -1.29124 -0.079542
rclavicle -8.15017e-015 1.03368e-014
rhumerus 9.73539 -37.3368 -25.8663
rradius 105.948
rwrist 8.80123
rhand -49.0571 -52.6298
rfingers 7.12502
rthumb -21.6838 -81.4355
lclavicle -8.15017e-015 1.03368e-014
lhumerus 24.6335 29.1556 43.0652
lradius 109.181
lwrist -2.14153
lhand -32.902 -51.5689
lfingers 7.12502
lthumb -6.11963 -21.6772
rfemur 30.089 -1.43561 18.8419
rtibia -20.3768
rfoot -11.5831 -16.2349
rtoes -0.195206
lfemur 30.1935 -2.48854 -14.1731
ltibia -24.9878
lfoot -1.19698 15.8477
ltoes -15.5598
357
root -1.31958 17.7135 7.21766 -4.61636 0.40087 -2.20782
lowerback 11.6305 0.789508 -0.833862
upperback -6.80005 0.820476 -0.792288
thorax -14.0975 0.411894 -0.603682
lowerneck -45.6251 -2.74374 -1.05365
upperneck 12.4799 -3.14872 1.03489
head 10.816 -1.29076 -0.0612942
rclavicle 1.64991e-014 -1.59028e-015
rhumerus 9.8904 -37.3941 -25.9058
rradius 105.811
rwrist 8.80961
rhand -49.1015 -52.6471
rfingers 7.12502
rthumb -21.7265 -81.4478
lclavicle 1.64991e-014 -1.59028e-015
lhumerus 24.7864 29.2445 43.0518
lradius 109.061
lwrist -2.20124
lhand -32.922 -51.526
lfingers 7.12502
lthumb -6.13886 -21.635
rfemur 30.1239 -1.44307 18.815
rtibia -20.3901
rfoot -11.6448 -16.1418
rtoes 0.517311
lfemur 30.2214 -2.54665 -14.2068
ltibia -25.0007
lfoot -1.22178 15.8629
ltoes -15.2798
358
root -1.32238 17.7096 7.21789 -4.63424 0.406828 -2.20462
lowerback 11.6282 0.787299 -0.871494
upperback -6.80197 0.811634 -0.785527
thorax -14.0991 0.41179 -0.572878
lowerneck -45.564 -2.726 -1.04921
upperneck 12.468 -3.1322 1.04556
head 10.8041 -1.28205 -0.0540778
rclavicle -1.78906e-015 3.97569e-015
rhumerus 10.1065 -37.459 -25.9687
rradius 105.657
rwrist 8.82443
rhand -48.9679 -52.7084
rfingers 7.12502
rthumb -21.5982 -81.524
lclavicle -1.78906e-015 3.97569e-015
lhumerus 24.9618 29.3892 43.0909
lradius 108.902
lwrist -2.25502
lhand -32.8529 -51.5091
lfingers 7.12502
lthumb -6.07218 -21.6161
rfemur 30.1506 -1.43351 18.8182
rtibia -20.3928
rfoot -11.6942 -16.0147
rtoes 1.27032
lfemur 30.26 -2.52095 -14.1898
ltibia -25.0252
lfoot -1.21548 15.8175
ltoes -15.0723
359
root -1.32487 17.7067 7.21728 -4.66324 0.406124 -2.18182
lowerback 11.657 0.78991 -0.936527
upperback -6.79984 0.805008 -0.770815
thorax -14.116 0.415769 -0.51881
lowerneck -45.5103 -2.70381 -1.02752
upperneck 12.4765 -3.10537 0.995802
head 10.7995 -1.27696 -0.0713327
rclavicle -1.13307e-014 3.18055e-015
rhumerus 10.372 -37.5476 -26.0213
rradius 105.485
rwrist 8.8202
rhand -48.8276 -52.8072
rfingers 7.12502
rthumb -21.4635 -81.6382
lclavicle -1.13307e-014 3.18055e-015
lhumerus 25.1216 29.5153 43.1666
lradius 108.738
lwrist -2.1788
lhand -32.9108 -51.5375
lfingers 7.12502
lthumb -6.12807 -21.6461
rfemur 30.1642 -1.46663 18.7843
rtibia -20.3566
rfoot -11.6352 -15.9228
rtoes 1.08519
lfemur 30.3057 -2.4538 -14.188
ltibia -25.0588
lfoot -1.24261 15.7302
ltoes -15.3593
360
root -1.32655 17.7066 7.21698 -4.69086 0.42268 -2.18877
lowerback 11.7087 0.783932 -0.941925
upperback -6.80207 0.796505 -0.760116
thorax -14.1513 0.412885 -0.50282
lowerneck -45.4789 -2.68931 -0.993591
upperneck 12.5347 -3.08714 0.909821
head 10.8163 -1.28013 -0.10686
rclavicle -1.80894e-014 -1.35174e-014
rhumerus 10.6434 -37.6797 -26.0565
rradius 105.239
rwrist 8.85444
rhand -48.7751 -52.9126
rfingers 7.12502
rthumb -21.413 -81.7493
lclavicle -1.80894e-014 -1.35174e-014
lhumerus 25.3751 29.6702 43.3154
lradius 108.553
lwrist -2.23412
lhand -32.8679 -51.4429
lfingers 7.12502
lthumb -6.08671 -21.5504
rfemur 30.1498 -1.4971 18.7898
rtibia -20.2692
rfoot -11.5408 -15.9007
rtoes 0.275627
lfemur 30.3393 -2.48115 -14.1753
ltibia -25.0833
lfoot -1.24868 15.7372
ltoes -15.2381
361
root -1.3284 17.7092 7.21812 -4.70576 0.450643 -2.22126
lowerback 11.7372 0.773669 -0.909389
upperback -6.80441 0.788345 -0.757467
thorax -14.1714 0.406076 -0.516812
lowerneck -45.4345 -2.65543 -0.926297
upperneck 12.6101 -3.06315 0.821273
head 10.8378 -1.27921 -0.147288
rclavicle -4.37326e-015 -1.03368e-014
rhumerus 10.9165 -37.8442 -26.0322
rradius 104.883
rwrist 8.80002
rhand -48.7618 -53.0271
rfingers 7.12502
rthumb -21.4003 -81.8652
lclavicle -4.37326e-015 -1.03368e-014
lhumerus 25.7164 29.9188 43.4349
lradius 108.365
lwrist -2.34555
lhand -32.6941 -51.2675
lfingers 7.12502
lthumb -5.91885 -21.3702
rfemur 30.0961 -1.46164 18.8538
rtibia -20.125
rfoot -11.6064 -15.9202
rtoes 0.0826067
lfemur 30.3522 -2.51443 -14.1268
ltibia -25.0892
lfoot -1.17774 15.7794
ltoes -14.554
362
root -1.33091 17.7156 7.21979 -4.68427 0.495705 -2.23431
lowerback 11.7143 0.760468 -0.927977
upperback -6.79498 0.769375 -0.743322
thorax -14.1463 0.399996 -0.485554
lowerneck -45.4523 -2.63851 -0.883603
upperneck 12.7271 -3.05388 0.763017
head 10.8844 -1.28093 -0.175793
rclavicle 2.56432e-014 -1.19271e-014
rhumerus 11.2744 -38.0255 -25.9796
rradius 104.449
rwrist 8.50369
rhand -48.7974 -52.9731
rfingers 7.12502
rthumb -21.4344 -81.8073
lclavicle 2.56432e-014 -1.19271e-014
lhumerus 26.0765 30.2718 43.4459
lradius 108.165
lwrist -2.11349
lhand -32.6096 -51.266
lfingers 7.12502
lthumb -5.83728 -21.3664
rfemur 29.9644 -1.4298 18.8993
rtibia -19.8984
rfoot -11.7595 -15.9435
rtoes 0.334062
lfemur 30.318 -2.47774 -14.0694
ltibia -25.0843
lfoot -1.02319 15.7415
ltoes -14.0002
363
root -1.3339 17.727 7.22081 -4.67529 0.56574 -2.22828
lowerback 11.7279 0.741656 -0.977325
upperback -6.8014 0.738189 -0.716767
thorax -14.1636 0.391873 -0.421168
lowerneck -45.3428 -2.67787 -0.966711
upperneck 12.787 -3.06968 0.801867
head 10.8972 -1.28712 -0.151247
rclavicle -3.97569e-015 1.59028e-014
rhumerus 11.6709 -38.179 -25.9418
rradius 104.013
rwrist 8.22244
rhand -48.8214 -52.7426
rfingers 7.12502
rthumb -21.4575 -81.5742
lclavicle -3.97569e-015 1.59028e-014
lhumerus 26.4631 30.6718 43.4844
lradius 107.923
lwrist -1.81383
lhand -32.5381 -51.3575
lfingers 7.12502
lthumb -5.76822 -21.456
rfemur 29.8043 -1.36272 18.9363
rtibia -19.5812
rfoot -11.8692 -16.0086
rtoes 0.447724
lfemur 30.286 -2.49163 -14.0389
ltibia -25.0712
lfoot -0.845482 15.7368
ltoes -13.1893
364
root -1.33746 17.7433 7.22102 -4.725 0.652237 -2.26833
lowerback 11.8179 0.713332 -0.969034
upperback -6.8201 0.701085 -0.706488
thorax -14.2422 0.374313 -0.40732
lowerneck -44.9369 -2.66996 -0.959029
upperneck 12.6742 -3.07409 0.818898
head 10.8043 -1.28929 -0.143477
rclavicle 1.19271e-015 -7.95139e-016
rhumerus 11.988 -38.3361 -25.8885
rradius 103.578
rwrist 8.18475
rhand -48.8227 -52.8104
rfingers 7.12502
rthumb -21.4587 -81.6419
lclavicle 1.19271e-015 -7.95139e-016
lhumerus 26.9354 31.0641 43.5317
lradius 107.612
lwrist -1.83595
lhand -32.4904 -51.3902
lfingers 7.12502
lthumb -5.72223 -21.4875
rfemur 29.6685 -1.25275 19.0422
rtibia -19.1983
rfoot -12.0032 -16.1352
rtoes 0.635551
lfemur 30.2912 -2.51418 -13.9609
ltibia -25.0473
lfoot -0.638381 15.7836
ltoes -12.1187
365
root -1.34183 17.7649 7.21847 -4.77774 0.761088 -2.35442
lowerback 11.948 0.676433 -0.942053
upperback -6.79723 0.655075 -0.699859
thorax -14.2963 0.35052 -0.405761
lowerneck -44.6033 -2.58618 -0.730527
upperneck 12.5278 -3.07047 0.698703
head 10.7007 -1.29613 -0.220726
rclavicle -1.0138e-014 -6.36111e-015
rhumerus 12.3921 -38.5998 -25.8342
rradius 103.02
rwrist 8.27494
rhand -48.8029 -53.2745
rfingers 7.12502
rthumb -21.4398 -82.1081
lclavicle -1.0138e-014 -6.36111e-015
lhumerus 27.5664 31.4808 43.5614
lradius 107.199
lwrist -1.99911
lhand -32.5271 -51.3336
lfingers 7.12502
lthumb -5.75765 -21.4319
rfemur 29.4778 -1.21645 19.1782
rtibia -18.7426
rfoot -12.1481 -16.2187
rtoes 1.05806
lfemur 30.2631 -2.44467 -13.8101
ltibia -25.0282
lfoot -0.229119 15.7574
ltoes -11.6957
366
root -1.34503 17.7906 7.21263 -4.8224 0.902381 -2.42493
lowerback 12.103 0.631465 -0.92329
upperback -6.73877 0.600542 -0.663492
thorax -14.3241 0.325476 -0.364036
lowerneck -44.5356 -2.56186 -0.574489
upperneck 12.5825 -3.09424 0.551032
head 10.7088 -1.32058 -0.306432
rclavicle 4.57205e-015 9.54166e-015
rhumerus 12.9705 -38.9453 -25.7805
rradius 102.379
rwrist 8.30044
rhand -48.9094 -53.5948
rfingers 7.12502
rthumb -21.542 -82.4168
lclavicle 4.57205e-015 9.54166e-015
lhumerus 28.2463 31.9939 43.6586
lradius 106.758
lwrist -2.07144
lhand -32.6591 -51.2205
lfingers 7.12502
lthumb -5.8851 -21.3222
rfemur 29.2186 -1.23868 19.2655
rtibia -18.1772
rfoot -12.2449 -16.2512
rtoes 1.38619
lfemur 30.2222 -2.35991 -13.6797
ltibia -25.0421
lfoot 0.310598 15.6981
ltoes -11.5375
367
root -1.34681 17.8202 7.20614 -4.89984 1.05977 -2.54201
lowerback 12.2845 0.57383 -0.825019
upperback -6.68742 0.547896 -0.591944
thorax -14.3762 0.295952 -0.328594
lowerneck -44.4933 -2.61559 -0.606185
upperneck 12.7884 -3.13803 0.499385
head 10.784 -1.34883 -0.33226
rclavicle -7.35503e-015 -3.18055e-015
rhumerus 13.5779 -39.2122 -25.6878
rradius 101.712
rwrist 8.10261
rhand -49.1637 -53.7264
rfingers 7.12502
rthumb -21.7863 -82.5202
lclavicle -7.35503e-015 -3.18055e-015
lhumerus 28.8878 32.5884 43.7856
lradius 106.302
lwrist -2.23807
lhand -32.8127 -51.1083
lfingers 7.12502
lthumb -6.03335 -21.2142
rfemur 28.9429 -1.28389 19.3834
rtibia -17.5153
rfoot -12.2809 -16.279
rtoes 1.6746
lfemur 30.2294 -2.28009 -13.4968
ltibia -25.0916
lfoot 0.859135 15.6849
ltoes -10.7343
368
root -1.34992 17.8536 7.19815 -5.02802 1.20142 -2.77309
lowerback 12.5114 0.513006 -0.645848
upperback -6.62328 0.510688 -0.486121
thorax -14.4411 0.268008 -0.304404
lowerneck -44.3135 -2.65343 -0.697032
upperneck 12.8047 -3.16763 0.615344
head 10.7725 -1.3506 -0.278301
rclavicle 8.15017e-015 -1.19271e-014
rhumerus 14.23 -39.4175 -25.5947
rradius 100.885
rwrist 7.81375
rhand -49.1703 -53.5179
rfingers 7.12502
rthumb -21.7926 -82.311
lclavicle 8.15017e-015 -1.19271e-014
lhumerus 29.5591 33.1921 43.8779
lradius 105.751
lwrist -2.37134
lhand -32.8256 -51.1367
lfingers 7.12502
lthumb -6.04589 -21.243
rfemur 28.6728 -1.23208 19.6579
rtibia -16.7802
rfoot -12.4217 -16.3287
rtoes 2.4396
lfemur 30.3031 -2.27884 -13.1957
ltibia -25.17
lfoot 1.45353 15.7593
ltoes -9.54441
369
root -1.35198 17.8862 7.18717 -5.18296 1.31368 -3.04249
lowerback 12.7376 0.459127 -0.442239
upperback -6.52746 0.490313 -0.367856
thorax -14.4678 0.246387 -0.283646
lowerneck -44.11 -2.66938 -0.748264
upperneck 12.718 -3.19687 0.759656
head 10.7177 -1.34654 -0.218113
rclavicle 3.97569e-015 -7.95139e-016
rhumerus 14.9534 -39.691 -25.5921
rradius 99.9509
rwrist 7.65527
rhand -49.0492 -53.1821
rfingers 7.12502
rthumb -21.6763 -81.9887
lclavicle 3.97569e-015 -7.95139e-016
lhumerus 30.2976 33.8054 43.9504
lradius 105.052
lwrist -2.24656
lhand -32.7447 -51.3961
lfingers 7.12502
lthumb -5.96774 -21.5001
rfemur 28.3847 -1.15209 19.9614
rtibia -15.9758
rfoot -12.6049 -16.3232
rtoes 3.21809
lfemur 30.4231 -2.37037 -12.8812
ltibia -25.274
lfoot 2.06931 15.8937
ltoes -8.38292
